<?xml version="1.0" encoding="utf-8" standalone="no"?>
<!DOCTYPE svg PUBLIC "-//W3C//DTD SVG 1.1//EN"
  "http://www.w3.org/Graphics/SVG/1.1/DTD/svg11.dtd">
<svg xmlns:xlink="http://www.w3.org/1999/xlink" width="288pt" height="288pt" viewBox="0 0 288 288" xmlns="http://www.w3.org/2000/svg" version="1.1">
 <metadata>
  <rdf:RDF xmlns:dc="http://purl.org/dc/elements/1.1/" xmlns:cc="http://creativecommons.org/ns#" xmlns:rdf="http://www.w3.org/1999/02/22-rdf-syntax-ns#">
   <cc:Work>
    <dc:type rdf:resource="http://purl.org/dc/dcmitype/StillImage"/>
    <dc:date>2024-12-04T22:39:07.820244</dc:date>
    <dc:format>image/svg+xml</dc:format>
    <dc:creator>
     <cc:Agent>
      <dc:title>Matplotlib v3.9.2, https://matplotlib.org/</dc:title>
     </cc:Agent>
    </dc:creator>
   </cc:Work>
  </rdf:RDF>
 </metadata>
 <defs>
  <style type="text/css">*{stroke-linejoin: round; stroke-linecap: butt}</style>
 </defs>
 <g id="figure_1">
  <g id="patch_1">
   <path d="M 0 288 
L 288 288 
L 288 0 
L 0 0 
z
" style="fill: #ffffff"/>
  </g>
  <g id="axes_1">
   <g id="patch_2">
    <path d="M 48.54 246.12 
L 278 246.12 
L 278 56.64 
L 48.54 56.64 
z
" style="fill: #ffffff"/>
   </g>
   <g id="matplotlib.axis_1">
    <g id="xtick_1">
     <g id="text_1">
      <!-- No -->
      <g style="fill: #262626" transform="translate(99.513594 260.277812) scale(0.1 -0.1)">
       <defs>
        <path id="ArialMT-4e" d="M 488 0 
L 488 4581 
L 1109 4581 
L 3516 984 
L 3516 4581 
L 4097 4581 
L 4097 0 
L 3475 0 
L 1069 3600 
L 1069 0 
L 488 0 
z
" transform="scale(0.015625)"/>
        <path id="ArialMT-6f" d="M 213 1659 
Q 213 2581 725 3025 
Q 1153 3394 1769 3394 
Q 2453 3394 2887 2945 
Q 3322 2497 3322 1706 
Q 3322 1066 3130 698 
Q 2938 331 2570 128 
Q 2203 -75 1769 -75 
Q 1072 -75 642 372 
Q 213 819 213 1659 
z
M 791 1659 
Q 791 1022 1069 705 
Q 1347 388 1769 388 
Q 2188 388 2466 706 
Q 2744 1025 2744 1678 
Q 2744 2294 2464 2611 
Q 2184 2928 1769 2928 
Q 1347 2928 1069 2612 
Q 791 2297 791 1659 
z
" transform="scale(0.015625)"/>
       </defs>
       <use xlink:href="#ArialMT-4e"/>
       <use xlink:href="#ArialMT-6f" x="72.216797"/>
      </g>
     </g>
    </g>
    <g id="xtick_2">
     <g id="text_2">
      <!-- Yes -->
      <g style="fill: #262626" transform="translate(212.475625 260.277812) scale(0.1 -0.1)">
       <defs>
        <path id="ArialMT-59" d="M 1784 0 
L 1784 1941 
L 19 4581 
L 756 4581 
L 1659 3200 
Q 1909 2813 2125 2425 
Q 2331 2784 2625 3234 
L 3513 4581 
L 4219 4581 
L 2391 1941 
L 2391 0 
L 1784 0 
z
" transform="scale(0.015625)"/>
        <path id="ArialMT-65" d="M 2694 1069 
L 3275 997 
Q 3138 488 2766 206 
Q 2394 -75 1816 -75 
Q 1088 -75 661 373 
Q 234 822 234 1631 
Q 234 2469 665 2931 
Q 1097 3394 1784 3394 
Q 2450 3394 2872 2941 
Q 3294 2488 3294 1666 
Q 3294 1616 3291 1516 
L 816 1516 
Q 847 969 1125 678 
Q 1403 388 1819 388 
Q 2128 388 2347 550 
Q 2566 713 2694 1069 
z
M 847 1978 
L 2700 1978 
Q 2663 2397 2488 2606 
Q 2219 2931 1791 2931 
Q 1403 2931 1139 2672 
Q 875 2413 847 1978 
z
" transform="scale(0.015625)"/>
        <path id="ArialMT-73" d="M 197 991 
L 753 1078 
Q 800 744 1014 566 
Q 1228 388 1613 388 
Q 2000 388 2187 545 
Q 2375 703 2375 916 
Q 2375 1106 2209 1216 
Q 2094 1291 1634 1406 
Q 1016 1563 777 1677 
Q 538 1791 414 1992 
Q 291 2194 291 2438 
Q 291 2659 392 2848 
Q 494 3038 669 3163 
Q 800 3259 1026 3326 
Q 1253 3394 1513 3394 
Q 1903 3394 2198 3281 
Q 2494 3169 2634 2976 
Q 2775 2784 2828 2463 
L 2278 2388 
Q 2241 2644 2061 2787 
Q 1881 2931 1553 2931 
Q 1166 2931 1000 2803 
Q 834 2675 834 2503 
Q 834 2394 903 2306 
Q 972 2216 1119 2156 
Q 1203 2125 1616 2013 
Q 2213 1853 2448 1751 
Q 2684 1650 2818 1456 
Q 2953 1263 2953 975 
Q 2953 694 2789 445 
Q 2625 197 2315 61 
Q 2006 -75 1616 -75 
Q 969 -75 630 194 
Q 291 463 197 991 
z
" transform="scale(0.015625)"/>
       </defs>
       <use xlink:href="#ArialMT-59"/>
       <use xlink:href="#ArialMT-65" x="57.574219"/>
       <use xlink:href="#ArialMT-73" x="113.189453"/>
      </g>
     </g>
    </g>
    <g id="text_3">
     <!-- Are Participants Expert? -->
     <g style="fill: #262626" transform="translate(93.250937 274.989688) scale(0.12 -0.12)">
      <defs>
       <path id="Helvetica-Bold-41" d="M 1747 1741 
L 2916 1741 
L 2341 3553 
L 1747 1741 
z
M 1806 4606 
L 2894 4606 
L 4525 0 
L 3481 0 
L 3184 947 
L 1488 947 
L 1169 0 
L 163 0 
L 1806 4606 
z
M 2344 4606 
L 2344 4606 
z
" transform="scale(0.015625)"/>
       <path id="Helvetica-Bold-72" d="M 2266 3488 
Q 2291 3488 2308 3486 
Q 2325 3484 2384 3481 
L 2384 2569 
Q 2300 2578 2234 2581 
Q 2169 2584 2128 2584 
Q 1591 2584 1406 2234 
Q 1303 2038 1303 1628 
L 1303 0 
L 406 0 
L 406 3406 
L 1256 3406 
L 1256 2813 
Q 1463 3153 1616 3278 
Q 1866 3488 2266 3488 
z
" transform="scale(0.015625)"/>
       <path id="Helvetica-Bold-65" d="M 1759 2763 
Q 1450 2763 1279 2569 
Q 1109 2375 1066 2044 
L 2450 2044 
Q 2428 2397 2236 2580 
Q 2044 2763 1759 2763 
z
M 1759 3497 
Q 2184 3497 2525 3337 
Q 2866 3178 3088 2834 
Q 3288 2531 3347 2131 
Q 3381 1897 3375 1456 
L 1044 1456 
Q 1063 944 1366 738 
Q 1550 609 1809 609 
Q 2084 609 2256 766 
Q 2350 850 2422 1000 
L 3331 1000 
Q 3297 697 3016 384 
Q 2578 -113 1791 -113 
Q 1141 -113 644 306 
Q 147 725 147 1669 
Q 147 2553 595 3025 
Q 1044 3497 1759 3497 
z
M 1822 3497 
L 1822 3497 
z
" transform="scale(0.015625)"/>
       <path id="Helvetica-Bold-20" transform="scale(0.015625)"/>
       <path id="Helvetica-Bold-50" d="M 3081 3141 
Q 3081 3500 2892 3653 
Q 2703 3806 2363 3806 
L 1466 3806 
L 1466 2450 
L 2363 2450 
Q 2703 2450 2892 2615 
Q 3081 2781 3081 3141 
z
M 4034 3147 
Q 4034 2331 3621 1993 
Q 3209 1656 2444 1656 
L 1466 1656 
L 1466 0 
L 509 0 
L 509 4606 
L 2516 4606 
Q 3209 4606 3621 4250 
Q 4034 3894 4034 3147 
z
" transform="scale(0.015625)"/>
       <path id="Helvetica-Bold-61" d="M 2294 1656 
Q 2209 1603 2123 1570 
Q 2038 1538 1888 1509 
L 1688 1472 
Q 1406 1422 1284 1350 
Q 1078 1228 1078 972 
Q 1078 744 1204 642 
Q 1331 541 1513 541 
Q 1800 541 2042 709 
Q 2284 878 2294 1325 
L 2294 1656 
z
M 1753 2072 
Q 2000 2103 2106 2150 
Q 2297 2231 2297 2403 
Q 2297 2613 2151 2692 
Q 2006 2772 1725 2772 
Q 1409 2772 1278 2616 
Q 1184 2500 1153 2303 
L 294 2303 
Q 322 2750 544 3038 
Q 897 3488 1756 3488 
Q 2316 3488 2750 3266 
Q 3184 3044 3184 2428 
L 3184 866 
Q 3184 703 3191 472 
Q 3200 297 3244 234 
Q 3288 172 3375 131 
L 3375 0 
L 2406 0 
Q 2366 103 2350 193 
Q 2334 284 2325 400 
Q 2141 200 1900 59 
Q 1613 -106 1250 -106 
Q 788 -106 486 158 
Q 184 422 184 906 
Q 184 1534 669 1816 
Q 934 1969 1450 2034 
L 1753 2072 
z
M 1800 3497 
L 1800 3497 
z
" transform="scale(0.015625)"/>
       <path id="Helvetica-Bold-74" d="M 66 2741 
L 66 3375 
L 541 3375 
L 541 4325 
L 1422 4325 
L 1422 3375 
L 1975 3375 
L 1975 2741 
L 1422 2741 
L 1422 941 
Q 1422 731 1475 679 
Q 1528 628 1800 628 
Q 1841 628 1886 629 
Q 1931 631 1975 634 
L 1975 -31 
L 1553 -47 
Q 922 -69 691 172 
Q 541 325 541 644 
L 541 2741 
L 66 2741 
z
" transform="scale(0.015625)"/>
       <path id="Helvetica-Bold-69" d="M 1331 3813 
L 428 3813 
L 428 4634 
L 1331 4634 
L 1331 3813 
z
M 428 3406 
L 1331 3406 
L 1331 0 
L 428 0 
L 428 3406 
z
" transform="scale(0.015625)"/>
       <path id="Helvetica-Bold-63" d="M 2450 2184 
Q 2425 2375 2322 2528 
Q 2172 2734 1856 2734 
Q 1406 2734 1241 2288 
Q 1153 2050 1153 1656 
Q 1153 1281 1241 1053 
Q 1400 628 1841 628 
Q 2153 628 2284 797 
Q 2416 966 2444 1234 
L 3353 1234 
Q 3322 828 3059 466 
Q 2641 -119 1819 -119 
Q 997 -119 609 368 
Q 222 856 222 1634 
Q 222 2513 650 3000 
Q 1078 3488 1831 3488 
Q 2472 3488 2880 3200 
Q 3288 2913 3363 2184 
L 2450 2184 
z
M 1847 3497 
L 1847 3497 
z
" transform="scale(0.015625)"/>
       <path id="Helvetica-Bold-70" d="M 2763 1703 
Q 2763 2097 2583 2400 
Q 2403 2703 2000 2703 
Q 1516 2703 1334 2244 
Q 1241 2000 1241 1625 
Q 1241 1031 1556 791 
Q 1744 650 2000 650 
Q 2372 650 2567 937 
Q 2763 1225 2763 1703 
z
M 2256 3481 
Q 2853 3481 3267 3040 
Q 3681 2600 3681 1747 
Q 3681 847 3276 375 
Q 2872 -97 2234 -97 
Q 1828 -97 1559 106 
Q 1413 219 1272 434 
L 1272 -1341 
L 391 -1341 
L 391 3406 
L 1244 3406 
L 1244 2903 
Q 1388 3125 1550 3253 
Q 1847 3481 2256 3481 
z
" transform="scale(0.015625)"/>
       <path id="Helvetica-Bold-6e" d="M 2303 3488 
Q 2831 3488 3167 3211 
Q 3503 2934 3503 2294 
L 3503 0 
L 2591 0 
L 2591 2072 
Q 2591 2341 2519 2484 
Q 2388 2747 2019 2747 
Q 1566 2747 1397 2363 
Q 1309 2159 1309 1844 
L 1309 0 
L 422 0 
L 422 3400 
L 1281 3400 
L 1281 2903 
Q 1453 3166 1606 3281 
Q 1881 3488 2303 3488 
z
M 1975 3497 
L 1975 3497 
z
" transform="scale(0.015625)"/>
       <path id="Helvetica-Bold-73" d="M 1109 1088 
Q 1138 850 1231 750 
Q 1397 572 1844 572 
Q 2106 572 2261 650 
Q 2416 728 2416 884 
Q 2416 1034 2291 1113 
Q 2166 1191 1363 1381 
Q 784 1525 547 1741 
Q 309 1953 309 2353 
Q 309 2825 679 3164 
Q 1050 3503 1722 3503 
Q 2359 3503 2761 3248 
Q 3163 2994 3222 2369 
L 2331 2369 
Q 2313 2541 2234 2641 
Q 2088 2822 1734 2822 
Q 1444 2822 1320 2731 
Q 1197 2641 1197 2519 
Q 1197 2366 1328 2297 
Q 1459 2225 2256 2050 
Q 2788 1925 3053 1672 
Q 3316 1416 3316 1031 
Q 3316 525 2939 204 
Q 2563 -116 1775 -116 
Q 972 -116 589 223 
Q 206 563 206 1088 
L 1109 1088 
z
M 1791 3497 
L 1791 3497 
z
" transform="scale(0.015625)"/>
       <path id="Helvetica-Bold-45" d="M 3894 3791 
L 1456 3791 
L 1456 2813 
L 3694 2813 
L 3694 2013 
L 1456 2013 
L 1456 828 
L 4006 828 
L 4006 0 
L 516 0 
L 516 4606 
L 3894 4606 
L 3894 3791 
z
" transform="scale(0.015625)"/>
       <path id="Helvetica-Bold-78" d="M 81 0 
L 1244 1725 
L 131 3400 
L 1222 3400 
L 1791 2413 
L 2347 3400 
L 3406 3400 
L 2288 1741 
L 3450 0 
L 2341 0 
L 1753 1022 
L 1163 0 
L 81 0 
z
" transform="scale(0.015625)"/>
       <path id="Helvetica-Bold-3f" d="M 1525 903 
L 2456 903 
L 2456 0 
L 1525 0 
L 1525 903 
z
M 384 3153 
Q 422 4044 1006 4416 
Q 1375 4653 1913 4653 
Q 2619 4653 3086 4315 
Q 3553 3978 3553 3316 
Q 3553 2909 3350 2631 
Q 3231 2463 2894 2200 
L 2672 2028 
Q 2491 1888 2431 1700 
Q 2394 1581 2391 1331 
L 1547 1331 
Q 1566 1859 1647 2061 
Q 1728 2263 2066 2525 
L 2294 2703 
Q 2406 2788 2475 2888 
Q 2600 3059 2600 3266 
Q 2600 3503 2461 3698 
Q 2322 3894 1953 3894 
Q 1591 3894 1439 3653 
Q 1288 3413 1288 3153 
L 384 3153 
z
" transform="scale(0.015625)"/>
      </defs>
      <use xlink:href="#Helvetica-Bold-41"/>
      <use xlink:href="#Helvetica-Bold-72" x="72.216797"/>
      <use xlink:href="#Helvetica-Bold-65" x="111.132812"/>
      <use xlink:href="#Helvetica-Bold-20" x="166.748047"/>
      <use xlink:href="#Helvetica-Bold-50" x="194.53125"/>
      <use xlink:href="#Helvetica-Bold-61" x="261.230469"/>
      <use xlink:href="#Helvetica-Bold-72" x="316.845703"/>
      <use xlink:href="#Helvetica-Bold-74" x="355.761719"/>
      <use xlink:href="#Helvetica-Bold-69" x="389.0625"/>
      <use xlink:href="#Helvetica-Bold-63" x="416.845703"/>
      <use xlink:href="#Helvetica-Bold-69" x="472.460938"/>
      <use xlink:href="#Helvetica-Bold-70" x="500.244141"/>
      <use xlink:href="#Helvetica-Bold-61" x="561.328125"/>
      <use xlink:href="#Helvetica-Bold-6e" x="616.943359"/>
      <use xlink:href="#Helvetica-Bold-74" x="678.027344"/>
      <use xlink:href="#Helvetica-Bold-73" x="711.328125"/>
      <use xlink:href="#Helvetica-Bold-20" x="766.943359"/>
      <use xlink:href="#Helvetica-Bold-45" x="794.726562"/>
      <use xlink:href="#Helvetica-Bold-78" x="861.425781"/>
      <use xlink:href="#Helvetica-Bold-70" x="917.041016"/>
      <use xlink:href="#Helvetica-Bold-65" x="978.125"/>
      <use xlink:href="#Helvetica-Bold-72" x="1033.740234"/>
      <use xlink:href="#Helvetica-Bold-74" x="1072.65625"/>
      <use xlink:href="#Helvetica-Bold-3f" x="1105.957031"/>
     </g>
    </g>
   </g>
   <g id="matplotlib.axis_2">
    <g id="ytick_1">
     <g id="text_4">
      <!-- 0 -->
      <g style="fill: #262626" transform="translate(35.979062 249.698906) scale(0.1 -0.1)">
       <defs>
        <path id="ArialMT-30" d="M 266 2259 
Q 266 3072 433 3567 
Q 600 4063 929 4331 
Q 1259 4600 1759 4600 
Q 2128 4600 2406 4451 
Q 2684 4303 2865 4023 
Q 3047 3744 3150 3342 
Q 3253 2941 3253 2259 
Q 3253 1453 3087 958 
Q 2922 463 2592 192 
Q 2263 -78 1759 -78 
Q 1097 -78 719 397 
Q 266 969 266 2259 
z
M 844 2259 
Q 844 1131 1108 757 
Q 1372 384 1759 384 
Q 2147 384 2411 759 
Q 2675 1134 2675 2259 
Q 2675 3391 2411 3762 
Q 2147 4134 1753 4134 
Q 1366 4134 1134 3806 
Q 844 3388 844 2259 
z
" transform="scale(0.015625)"/>
       </defs>
       <use xlink:href="#ArialMT-30"/>
      </g>
     </g>
    </g>
    <g id="ytick_2">
     <g id="text_5">
      <!-- 50 -->
      <g style="fill: #262626" transform="translate(30.418125 216.156686) scale(0.1 -0.1)">
       <defs>
        <path id="ArialMT-35" d="M 266 1200 
L 856 1250 
Q 922 819 1161 601 
Q 1400 384 1738 384 
Q 2144 384 2425 690 
Q 2706 997 2706 1503 
Q 2706 1984 2436 2262 
Q 2166 2541 1728 2541 
Q 1456 2541 1237 2417 
Q 1019 2294 894 2097 
L 366 2166 
L 809 4519 
L 3088 4519 
L 3088 3981 
L 1259 3981 
L 1013 2750 
Q 1425 3038 1878 3038 
Q 2478 3038 2890 2622 
Q 3303 2206 3303 1553 
Q 3303 931 2941 478 
Q 2500 -78 1738 -78 
Q 1113 -78 717 272 
Q 322 622 266 1200 
z
" transform="scale(0.015625)"/>
       </defs>
       <use xlink:href="#ArialMT-35"/>
       <use xlink:href="#ArialMT-30" x="55.615234"/>
      </g>
     </g>
    </g>
    <g id="ytick_3">
     <g id="text_6">
      <!-- 100 -->
      <g style="fill: #262626" transform="translate(24.857187 182.614467) scale(0.1 -0.1)">
       <defs>
        <path id="ArialMT-31" d="M 2384 0 
L 1822 0 
L 1822 3584 
Q 1619 3391 1289 3197 
Q 959 3003 697 2906 
L 697 3450 
Q 1169 3672 1522 3987 
Q 1875 4303 2022 4600 
L 2384 4600 
L 2384 0 
z
" transform="scale(0.015625)"/>
       </defs>
       <use xlink:href="#ArialMT-31"/>
       <use xlink:href="#ArialMT-30" x="55.615234"/>
       <use xlink:href="#ArialMT-30" x="111.230469"/>
      </g>
     </g>
    </g>
    <g id="ytick_4">
     <g id="text_7">
      <!-- 150 -->
      <g style="fill: #262626" transform="translate(24.857187 149.072247) scale(0.1 -0.1)">
       <use xlink:href="#ArialMT-31"/>
       <use xlink:href="#ArialMT-35" x="55.615234"/>
       <use xlink:href="#ArialMT-30" x="111.230469"/>
      </g>
     </g>
    </g>
    <g id="ytick_5">
     <g id="text_8">
      <!-- 200 -->
      <g style="fill: #262626" transform="translate(24.857187 115.530027) scale(0.1 -0.1)">
       <defs>
        <path id="ArialMT-32" d="M 3222 541 
L 3222 0 
L 194 0 
Q 188 203 259 391 
Q 375 700 629 1000 
Q 884 1300 1366 1694 
Q 2113 2306 2375 2664 
Q 2638 3022 2638 3341 
Q 2638 3675 2398 3904 
Q 2159 4134 1775 4134 
Q 1369 4134 1125 3890 
Q 881 3647 878 3216 
L 300 3275 
Q 359 3922 746 4261 
Q 1134 4600 1788 4600 
Q 2447 4600 2831 4234 
Q 3216 3869 3216 3328 
Q 3216 3053 3103 2787 
Q 2991 2522 2730 2228 
Q 2469 1934 1863 1422 
Q 1356 997 1212 845 
Q 1069 694 975 541 
L 3222 541 
z
" transform="scale(0.015625)"/>
       </defs>
       <use xlink:href="#ArialMT-32"/>
       <use xlink:href="#ArialMT-30" x="55.615234"/>
       <use xlink:href="#ArialMT-30" x="111.230469"/>
      </g>
     </g>
    </g>
    <g id="ytick_6">
     <g id="text_9">
      <!-- 250 -->
      <g style="fill: #262626" transform="translate(24.857187 81.987807) scale(0.1 -0.1)">
       <use xlink:href="#ArialMT-32"/>
       <use xlink:href="#ArialMT-35" x="55.615234"/>
       <use xlink:href="#ArialMT-30" x="111.230469"/>
      </g>
     </g>
    </g>
    <g id="text_10">
     <!-- count -->
     <g style="fill: #262626" transform="translate(18.342812 167.708438) rotate(-90) scale(0.12 -0.12)">
      <defs>
       <path id="Helvetica-Bold-6f" d="M 1944 628 
Q 2334 628 2543 906 
Q 2753 1184 2753 1697 
Q 2753 2209 2543 2486 
Q 2334 2763 1944 2763 
Q 1553 2763 1342 2486 
Q 1131 2209 1131 1697 
Q 1131 1184 1342 906 
Q 1553 628 1944 628 
z
M 3688 1697 
Q 3688 947 3256 414 
Q 2825 -119 1947 -119 
Q 1069 -119 637 414 
Q 206 947 206 1697 
Q 206 2434 637 2975 
Q 1069 3516 1947 3516 
Q 2825 3516 3256 2975 
Q 3688 2434 3688 1697 
z
M 1947 3497 
L 1947 3497 
z
" transform="scale(0.015625)"/>
       <path id="Helvetica-Bold-75" d="M 1303 3406 
L 1303 1353 
Q 1303 1063 1372 916 
Q 1494 656 1850 656 
Q 2306 656 2475 1025 
Q 2563 1225 2563 1553 
L 2563 3406 
L 3466 3406 
L 3466 0 
L 2600 0 
L 2600 481 
Q 2588 466 2538 387 
Q 2488 309 2419 250 
Q 2209 63 2014 -6 
Q 1819 -75 1556 -75 
Q 800 -75 538 469 
Q 391 769 391 1353 
L 391 3406 
L 1303 3406 
z
M 1928 3497 
L 1928 3497 
z
" transform="scale(0.015625)"/>
      </defs>
      <use xlink:href="#Helvetica-Bold-63"/>
      <use xlink:href="#Helvetica-Bold-6f" x="55.615234"/>
      <use xlink:href="#Helvetica-Bold-75" x="116.699219"/>
      <use xlink:href="#Helvetica-Bold-6e" x="177.783203"/>
      <use xlink:href="#Helvetica-Bold-74" x="238.867188"/>
     </g>
    </g>
   </g>
   <g id="patch_3">
    <path d="M 60.013 246.12 
L 151.797 246.12 
L 151.797 65.662857 
L 60.013 65.662857 
z
" clip-path="url(#pb6f8ca8bcf)" style="fill: #bf6a6a; stroke: #ffffff; stroke-linejoin: miter"/>
   </g>
   <g id="patch_4">
    <path d="M 174.743 246.12 
L 266.527 246.12 
L 266.527 178.364716 
L 174.743 178.364716 
z
" clip-path="url(#pb6f8ca8bcf)" style="fill: #5481a6; stroke: #ffffff; stroke-linejoin: miter"/>
   </g>
   <g id="line2d_1">
    <path clip-path="url(#pb6f8ca8bcf)" style="fill: none; stroke: #424242; stroke-width: 2.25; stroke-linecap: round"/>
   </g>
   <g id="line2d_2">
    <path clip-path="url(#pb6f8ca8bcf)" style="fill: none; stroke: #424242; stroke-width: 2.25; stroke-linecap: round"/>
   </g>
   <g id="patch_5">
    <path d="M 48.54 246.12 
L 48.54 56.64 
" style="fill: none; stroke: #cccccc; stroke-width: 0.8; stroke-linejoin: miter; stroke-linecap: square"/>
   </g>
   <g id="patch_6">
    <path d="M 48.54 246.12 
L 278 246.12 
" style="fill: none; stroke: #cccccc; stroke-width: 0.8; stroke-linejoin: miter; stroke-linecap: square"/>
   </g>
   <g id="text_11">
    <!-- 269 -->
    <g style="fill: #262626" transform="translate(105.905 64.321168) scale(0.09 -0.09)">
     <defs>
      <path id="Helvetica-Bold-32" d="M 200 0 
Q 213 488 409 891 
Q 600 1344 1309 1850 
Q 1925 2291 2106 2481 
Q 2384 2778 2384 3131 
Q 2384 3419 2225 3609 
Q 2066 3800 1769 3800 
Q 1363 3800 1216 3497 
Q 1131 3322 1116 2941 
L 250 2941 
Q 272 3519 459 3875 
Q 816 4553 1725 4553 
Q 2444 4553 2869 4154 
Q 3294 3756 3294 3100 
Q 3294 2597 2994 2206 
Q 2797 1947 2347 1628 
L 1991 1375 
Q 1656 1138 1532 1031 
Q 1409 925 1325 784 
L 3303 784 
L 3303 0 
L 200 0 
z
" transform="scale(0.015625)"/>
      <path id="Helvetica-Bold-36" d="M 1094 1434 
Q 1094 1069 1291 837 
Q 1488 606 1791 606 
Q 2088 606 2258 829 
Q 2428 1053 2428 1409 
Q 2428 1806 2234 2017 
Q 2041 2228 1759 2228 
Q 1531 2228 1356 2091 
Q 1094 1888 1094 1434 
z
M 2347 3391 
Q 2347 3500 2263 3631 
Q 2119 3844 1828 3844 
Q 1394 3844 1209 3356 
Q 1109 3088 1072 2563 
Q 1238 2759 1456 2850 
Q 1675 2941 1956 2941 
Q 2559 2941 2945 2531 
Q 3331 2122 3331 1484 
Q 3331 850 2953 365 
Q 2575 -119 1778 -119 
Q 922 -119 516 597 
Q 200 1156 200 2041 
Q 200 2559 244 2884 
Q 322 3463 547 3847 
Q 741 4175 1055 4375 
Q 1369 4575 1806 4575 
Q 2438 4575 2813 4251 
Q 3188 3928 3234 3391 
L 2347 3391 
z
" transform="scale(0.015625)"/>
      <path id="Helvetica-Bold-39" d="M 191 2938 
Q 191 3666 611 4117 
Q 1031 4569 1703 4569 
Q 2738 4569 3122 3653 
Q 3341 3134 3341 2288 
Q 3341 1466 3131 916 
Q 2731 -131 1663 -131 
Q 1153 -131 747 170 
Q 341 472 281 1050 
L 1169 1050 
Q 1200 850 1337 725 
Q 1475 600 1703 600 
Q 2144 600 2322 1088 
Q 2419 1356 2444 1872 
Q 2322 1719 2184 1638 
Q 1934 1488 1569 1488 
Q 1028 1488 609 1861 
Q 191 2234 191 2938 
z
M 1763 2213 
Q 1947 2213 2109 2319 
Q 2413 2513 2413 2991 
Q 2413 3375 2233 3600 
Q 2053 3825 1741 3825 
Q 1513 3825 1350 3697 
Q 1094 3497 1094 3019 
Q 1094 2616 1258 2414 
Q 1422 2213 1763 2213 
z
" transform="scale(0.015625)"/>
     </defs>
     <use xlink:href="#Helvetica-Bold-32"/>
     <use xlink:href="#Helvetica-Bold-36" x="55.615234"/>
     <use xlink:href="#Helvetica-Bold-39" x="111.230469"/>
    </g>
   </g>
   <g id="text_12">
    <!-- 101 -->
    <g style="fill: #262626" transform="translate(220.635 177.023027) scale(0.09 -0.09)">
     <defs>
      <path id="Helvetica-Bold-31" d="M 444 3125 
L 444 3731 
Q 866 3750 1034 3788 
Q 1303 3847 1472 4025 
Q 1588 4147 1647 4350 
Q 1681 4472 1681 4531 
L 2422 4531 
L 2422 0 
L 1509 0 
L 1509 3125 
L 444 3125 
z
" transform="scale(0.015625)"/>
      <path id="Helvetica-Bold-30" d="M 1109 2222 
Q 1109 1441 1237 1027 
Q 1366 613 1763 613 
Q 2159 613 2282 1027 
Q 2406 1441 2406 2222 
Q 2406 3041 2282 3434 
Q 2159 3828 1763 3828 
Q 1366 3828 1237 3434 
Q 1109 3041 1109 2222 
z
M 1763 4563 
Q 2628 4563 2976 3953 
Q 3325 3344 3325 2222 
Q 3325 1100 2976 493 
Q 2628 -113 1763 -113 
Q 897 -113 548 493 
Q 200 1100 200 2222 
Q 200 3344 548 3953 
Q 897 4563 1763 4563 
z
" transform="scale(0.015625)"/>
     </defs>
     <use xlink:href="#Helvetica-Bold-31"/>
     <use xlink:href="#Helvetica-Bold-30" x="55.615234"/>
     <use xlink:href="#Helvetica-Bold-31" x="111.230469"/>
    </g>
   </g>
   <g id="text_13">
    <!-- Frequency of Studies with -->
    <g style="fill: #262626" transform="translate(76.156094 21.461375) scale(0.14 -0.14)">
     <defs>
      <path id="Helvetica-Bold-46" d="M 488 4600 
L 3753 4600 
L 3753 3791 
L 1444 3791 
L 1444 2731 
L 3466 2731 
L 3466 1931 
L 1444 1931 
L 1444 0 
L 488 0 
L 488 4600 
z
" transform="scale(0.015625)"/>
      <path id="Helvetica-Bold-71" d="M 1859 656 
Q 2319 656 2513 1050 
Q 2638 1309 2638 1706 
Q 2638 2019 2531 2266 
Q 2341 2709 1863 2709 
Q 1525 2709 1320 2450 
Q 1116 2191 1116 1663 
Q 1116 1309 1209 1084 
Q 1384 656 1859 656 
z
M 1634 3494 
Q 2059 3494 2322 3284 
Q 2475 3166 2634 2894 
L 2634 3400 
L 3494 3400 
L 3494 -1350 
L 2613 -1350 
L 2613 422 
Q 2513 216 2270 55 
Q 2028 -106 1609 -106 
Q 1019 -106 603 366 
Q 188 838 188 1625 
Q 188 2475 605 2984 
Q 1022 3494 1634 3494 
z
" transform="scale(0.015625)"/>
      <path id="Helvetica-Bold-79" d="M 553 -653 
L 666 -659 
Q 797 -666 915 -650 
Q 1034 -634 1116 -578 
Q 1194 -525 1261 -356 
Q 1328 -188 1316 -150 
L 66 3406 
L 1056 3406 
L 1800 894 
L 2503 3406 
L 3450 3406 
L 2281 56 
Q 1944 -913 1747 -1145 
Q 1550 -1378 959 -1378 
Q 841 -1378 769 -1376 
Q 697 -1375 553 -1366 
L 553 -653 
z
M 1759 3497 
L 1759 3497 
z
" transform="scale(0.015625)"/>
      <path id="Helvetica-Bold-66" d="M 1672 4653 
Q 1756 4653 1825 4648 
Q 1894 4644 2013 4634 
L 2013 3909 
Q 1938 3919 1761 3923 
Q 1584 3928 1517 3845 
Q 1450 3763 1450 3663 
Q 1450 3563 1450 3375 
L 2034 3375 
L 2034 2747 
L 1450 2747 
L 1450 0 
L 563 0 
L 563 2747 
L 66 2747 
L 66 3375 
L 553 3375 
L 553 3594 
Q 553 4141 738 4347 
Q 931 4653 1672 4653 
z
" transform="scale(0.015625)"/>
      <path id="Helvetica-Bold-53" d="M 1184 1422 
Q 1228 1106 1356 950 
Q 1591 666 2159 666 
Q 2500 666 2713 741 
Q 3116 884 3116 1275 
Q 3116 1503 2916 1628 
Q 2716 1750 2288 1844 
L 1800 1953 
Q 1081 2116 806 2306 
Q 341 2625 341 3303 
Q 341 3922 791 4331 
Q 1241 4741 2113 4741 
Q 2841 4741 3355 4355 
Q 3869 3969 3894 3234 
L 2969 3234 
Q 2944 3650 2606 3825 
Q 2381 3941 2047 3941 
Q 1675 3941 1453 3791 
Q 1231 3641 1231 3372 
Q 1231 3125 1450 3003 
Q 1591 2922 2050 2813 
L 2844 2622 
Q 3366 2497 3631 2288 
Q 4044 1963 4044 1347 
Q 4044 716 3561 298 
Q 3078 -119 2197 -119 
Q 1297 -119 781 292 
Q 266 703 266 1422 
L 1184 1422 
z
M 2119 4747 
L 2119 4747 
z
" transform="scale(0.015625)"/>
      <path id="Helvetica-Bold-64" d="M 1672 3488 
Q 1981 3488 2222 3352 
Q 2463 3216 2613 2975 
L 2613 4600 
L 3516 4600 
L 3516 0 
L 2650 0 
L 2650 472 
Q 2459 169 2215 31 
Q 1972 -106 1609 -106 
Q 1013 -106 605 376 
Q 197 859 197 1616 
Q 197 2488 598 2988 
Q 1000 3488 1672 3488 
z
M 1866 644 
Q 2244 644 2441 925 
Q 2638 1206 2638 1653 
Q 2638 2278 2322 2547 
Q 2128 2709 1872 2709 
Q 1481 2709 1298 2414 
Q 1116 2119 1116 1681 
Q 1116 1209 1302 926 
Q 1488 644 1866 644 
z
" transform="scale(0.015625)"/>
      <path id="Helvetica-Bold-77" d="M 2022 3406 
L 2925 3406 
L 3444 953 
L 3975 3406 
L 4903 3406 
L 3916 0 
L 3000 0 
L 2466 2481 
L 1925 0 
L 1000 0 
L 44 3406 
L 1000 3406 
L 1531 963 
L 2022 3406 
z
" transform="scale(0.015625)"/>
      <path id="Helvetica-Bold-68" d="M 2294 3494 
Q 2609 3494 2867 3384 
Q 3125 3275 3291 3050 
Q 3431 2859 3462 2657 
Q 3494 2456 3494 2000 
L 3494 0 
L 2584 0 
L 2584 2072 
Q 2584 2347 2491 2516 
Q 2369 2753 2028 2753 
Q 1675 2753 1492 2517 
Q 1309 2281 1309 1844 
L 1309 0 
L 422 0 
L 422 4591 
L 1309 4591 
L 1309 2963 
Q 1503 3259 1758 3376 
Q 2013 3494 2294 3494 
z
" transform="scale(0.015625)"/>
     </defs>
     <use xlink:href="#Helvetica-Bold-46"/>
     <use xlink:href="#Helvetica-Bold-72" x="61.083984"/>
     <use xlink:href="#Helvetica-Bold-65" x="100"/>
     <use xlink:href="#Helvetica-Bold-71" x="155.615234"/>
     <use xlink:href="#Helvetica-Bold-75" x="216.699219"/>
     <use xlink:href="#Helvetica-Bold-65" x="277.783203"/>
     <use xlink:href="#Helvetica-Bold-6e" x="333.398438"/>
     <use xlink:href="#Helvetica-Bold-63" x="394.482422"/>
     <use xlink:href="#Helvetica-Bold-79" x="450.097656"/>
     <use xlink:href="#Helvetica-Bold-20" x="505.712891"/>
     <use xlink:href="#Helvetica-Bold-6f" x="533.496094"/>
     <use xlink:href="#Helvetica-Bold-66" x="594.580078"/>
     <use xlink:href="#Helvetica-Bold-20" x="627.880859"/>
     <use xlink:href="#Helvetica-Bold-53" x="655.664062"/>
     <use xlink:href="#Helvetica-Bold-74" x="722.363281"/>
     <use xlink:href="#Helvetica-Bold-75" x="755.664062"/>
     <use xlink:href="#Helvetica-Bold-64" x="816.748047"/>
     <use xlink:href="#Helvetica-Bold-69" x="877.832031"/>
     <use xlink:href="#Helvetica-Bold-65" x="905.615234"/>
     <use xlink:href="#Helvetica-Bold-73" x="961.230469"/>
     <use xlink:href="#Helvetica-Bold-20" x="1016.845703"/>
     <use xlink:href="#Helvetica-Bold-77" x="1044.628906"/>
     <use xlink:href="#Helvetica-Bold-69" x="1122.412109"/>
     <use xlink:href="#Helvetica-Bold-74" x="1150.195312"/>
     <use xlink:href="#Helvetica-Bold-68" x="1183.496094"/>
    </g>
    <!-- Expert Participants -->
    <g style="fill: #262626" transform="translate(99.47375 36.64) scale(0.14 -0.14)">
     <use xlink:href="#Helvetica-Bold-45"/>
     <use xlink:href="#Helvetica-Bold-78" x="66.699219"/>
     <use xlink:href="#Helvetica-Bold-70" x="122.314453"/>
     <use xlink:href="#Helvetica-Bold-65" x="183.398438"/>
     <use xlink:href="#Helvetica-Bold-72" x="239.013672"/>
     <use xlink:href="#Helvetica-Bold-74" x="277.929688"/>
     <use xlink:href="#Helvetica-Bold-20" x="311.230469"/>
     <use xlink:href="#Helvetica-Bold-50" x="339.013672"/>
     <use xlink:href="#Helvetica-Bold-61" x="405.712891"/>
     <use xlink:href="#Helvetica-Bold-72" x="461.328125"/>
     <use xlink:href="#Helvetica-Bold-74" x="500.244141"/>
     <use xlink:href="#Helvetica-Bold-69" x="533.544922"/>
     <use xlink:href="#Helvetica-Bold-63" x="561.328125"/>
     <use xlink:href="#Helvetica-Bold-69" x="616.943359"/>
     <use xlink:href="#Helvetica-Bold-70" x="644.726562"/>
     <use xlink:href="#Helvetica-Bold-61" x="705.810547"/>
     <use xlink:href="#Helvetica-Bold-6e" x="761.425781"/>
     <use xlink:href="#Helvetica-Bold-74" x="822.509766"/>
     <use xlink:href="#Helvetica-Bold-73" x="855.810547"/>
    </g>
   </g>
  </g>
 </g>
 <defs>
  <clipPath id="pb6f8ca8bcf">
   <rect x="48.54" y="56.64" width="229.46" height="189.48"/>
  </clipPath>
 </defs>
</svg>
